<svg version="1.1" xmlns="http://www.w3.org/2000/svg" xmlns:xlink="http://www.w3.org/1999/xlink" width="25" height="25" viewBox="0,0,256,256"><g fill-opacity="0" fill="#dddddd" fill-rule="nonzero" stroke="none" stroke-width="1" stroke-linecap="butt" stroke-linejoin="miter" stroke-miterlimit="10" stroke-dasharray="" stroke-dashoffset="0" font-family="none" font-weight="none" font-size="none" text-anchor="none" style="mix-blend-mode: normal"><path d="M0,256v-256h256v256z" id="bgRectangle"></path></g><g fill="#000000" fill-rule="nonzero" stroke="none" stroke-width="1" stroke-linecap="butt" stroke-linejoin="miter" stroke-miterlimit="10" stroke-dasharray="" stroke-dashoffset="0" font-family="none" font-weight="none" font-size="none" text-anchor="none" style="mix-blend-mode: normal"><g transform="translate(0.008,0.00977) scale(0.128,0.128)"><path d="M976.5,83.6c-237,6.7 -457.9,101.6 -624.5,268.4c-77.5,77.6 -138.7,165.1 -184.7,264.3c-42.8,92.4 -69.9,193.2 -79.8,296.7c-5.3,55.7 -5.3,118.3 0,174c20.4,213 113.1,409.8 264.5,561c149.2,149.1 342.7,241.6 551,263.5c53.8,5.6 115.6,6.5 167.7,2.5c218.5,-17 421.6,-110.5 576.8,-265.5c149.1,-148.9 241.4,-341.4 263.9,-551c6.6,-60.7 6.6,-134.3 0,-195c-31.9,-296.4 -204.1,-556.8 -464.9,-703.2c-107,-60.1 -229.6,-98.7 -353.5,-111.2c-33.5,-3.4 -84.7,-5.4 -116.5,-4.5zM1060.2,252.4c86.7,7.4 166.2,27.5 242.9,61.4c198.3,87.8 350.5,259 413.8,465.5c41.6,135.5 43.8,282.4 6.5,418.9c-27,98.6 -73.4,189.7 -137.9,270.3c-33.8,42.3 -76.8,85.1 -119.5,119.1c-113,89.8 -249.7,145 -393.5,158.8c-172.3,16.6 -344.5,-26.4 -487.5,-121.7c-185.6,-123.8 -306.2,-321.7 -330.4,-542.2c-3.3,-29.7 -4,-45 -4,-82.5c0,-56.7 4,-98.5 14.5,-150c49.1,-241.1 214.7,-443.8 441.4,-540.3c76.2,-32.4 160.1,-52.5 240.5,-57.7c9.1,-0.6 19,-1.2 22,-1.4c12.2,-0.8 74.6,0.4 91.2,1.8z"></path><path d="M733,668.4c-16.1,3.7 -28.5,10.3 -40.4,21.5c-29.3,27.8 -34.1,72.9 -11.3,107.1c1.6,2.5 47.6,49.2 102.1,103.7l99.1,99.3l-99.1,99.2c-54.5,54.6 -100.5,101.3 -102.1,103.8c-9.5,14.2 -14.3,30 -14.3,47c0,32.7 18.3,61.4 48.1,75.4c12.2,5.8 18.5,7.1 34.9,7.1c10.8,0 16.2,-0.5 21,-1.8c7.6,-2.1 19,-7.3 25.7,-11.8c2.7,-1.7 49.5,-47.8 104,-102.3l99.3,-99.1l99.2,99.1c54.6,54.5 101.4,100.6 104.1,102.3c6.7,4.5 18.1,9.7 25.7,11.8c4.8,1.3 10.2,1.8 21,1.8c16.3,0 22.7,-1.3 34.7,-6.9c23.4,-11.1 39.6,-30.7 45.9,-55.4c5.8,-22.7 1.4,-47.3 -11.9,-67.2c-1.6,-2.5 -47.6,-49.2 -102.1,-103.8l-99.1,-99.2l99.1,-99.3c54.5,-54.5 100.5,-101.2 102.1,-103.7c13.3,-19.9 17.7,-44.5 11.9,-67.2c-6.3,-24.7 -22.5,-44.3 -45.9,-55.4c-12,-5.6 -18.4,-6.9 -34.7,-6.9c-10.8,0 -16.2,0.5 -21,1.8c-7.6,2.1 -19,7.3 -25.7,11.8c-2.7,1.7 -49.5,47.8 -104.1,102.3l-99.2,99.1l-99.3,-99.1c-54.5,-54.5 -101.3,-100.6 -104,-102.3c-6.5,-4.4 -18,-9.7 -25.2,-11.7c-7.9,-2.2 -30.9,-2.8 -38.5,-1z"></path></g></g></svg>