<svg version="1.0" xmlns="http://www.w3.org/2000/svg" width="25" height="25" viewBox="0 0 2000 2000"><path d="M976.5 83.6C739.5 90.3 518.6 185.2 352 352c-77.5 77.6-138.7 165.1-184.7 264.3-42.8 92.4-69.9 193.2-79.8 296.7-5.3 55.7-5.3 118.3 0 174 20.4 213 113.1 409.8 264.5 561 149.2 149.1 342.7 241.6 551 263.5 53.8 5.6 115.6 6.5 167.7 2.5 218.5-17 421.6-110.5 576.8-265.5 149.1-148.9 241.4-341.4 263.9-551 6.6-60.7 6.6-134.3 0-195-31.9-296.4-204.1-556.8-464.9-703.2-107-60.1-229.6-98.7-353.5-111.2-33.5-3.4-84.7-5.4-116.5-4.5zm83.7 168.8c86.7 7.4 166.2 27.5 242.9 61.4 198.3 87.8 350.5 259 413.8 465.5 41.6 135.5 43.8 282.4 6.5 418.9-27 98.6-73.4 189.7-137.9 270.3-33.8 42.3-76.8 85.1-119.5 119.1-113 89.8-249.7 145-393.5 158.8C900.2 1763 728 1720 585 1624.7c-185.6-123.8-306.2-321.7-330.4-542.2-3.3-29.7-4-45-4-82.5 0-56.7 4-98.5 14.5-150 49.1-241.1 214.7-443.8 441.4-540.3 76.2-32.4 160.1-52.5 240.5-57.7 9.1-.6 19-1.2 22-1.4 12.2-.8 74.6.4 91.2 1.8z"/><path d="M733 668.4c-16.1 3.7-28.5 10.3-40.4 21.5-29.3 27.8-34.1 72.9-11.3 107.1 1.6 2.5 47.6 49.2 102.1 103.7l99.1 99.3-99.1 99.2c-54.5 54.6-100.5 101.3-102.1 103.8-9.5 14.2-14.3 30-14.3 47 0 32.7 18.3 61.4 48.1 75.4 12.2 5.8 18.5 7.1 34.9 7.1 10.8 0 16.2-.5 21-1.8 7.6-2.1 19-7.3 25.7-11.8 2.7-1.7 49.5-47.8 104-102.3l99.3-99.1 99.2 99.1c54.6 54.5 101.4 100.6 104.1 102.3 6.7 4.5 18.1 9.7 25.7 11.8 4.8 1.3 10.2 1.8 21 1.8 16.3 0 22.7-1.3 34.7-6.9 23.4-11.1 39.6-30.7 45.9-55.4 5.8-22.7 1.4-47.3-11.9-67.2-1.6-2.5-47.6-49.2-102.1-103.8l-99.1-99.2 99.1-99.3c54.5-54.5 100.5-101.2 102.1-103.7 13.3-19.9 17.7-44.5 11.9-67.2-6.3-24.7-22.5-44.3-45.9-55.4-12-5.6-18.4-6.9-34.7-6.9-10.8 0-16.2.5-21 1.8-7.6 2.1-19 7.3-25.7 11.8-2.7 1.7-49.5 47.8-104.1 102.3l-99.2 99.1-99.3-99.1c-54.5-54.5-101.3-100.6-104-102.3-6.5-4.4-18-9.7-25.2-11.7-7.9-2.2-30.9-2.8-38.5-1z"/></svg>